<svg xmlns="http://www.w3.org/2000/svg" viewBox="0 0 512 512" role="img" aria-label="NOVA avatar"><defs><linearGradient id="g" x1="0" y1="0" x2="1" y2="1"><stop stop-color="#B8F23D"/><stop offset=".55" stop-color="#FFC83D"/><stop offset="1" stop-color="#FF6B5E"/></linearGradient></defs><rect width="512" height="512" rx="128" fill="#F8FAFC"/><path d="M256 64c105 0 192 76 192 170 0 74-52 138-125 161-22 7-40 22-54 42l-13 19-13-19c-14-20-32-35-54-42C116 372 64 308 64 234 64 140 151 64 256 64Z" fill="#17151F"/><path d="M142 223c0-57 51-104 114-104s114 47 114 104-51 104-114 104-114-47-114-104Z" fill="url(#g)"/><circle cx="211" cy="221" r="15" fill="#17151F"/><circle cx="301" cy="221" r="15" fill="#17151F"/><path d="M211 263c27 22 63 22 90 0" fill="none" stroke="#17151F" stroke-width="14" stroke-linecap="round"/><path d="M256 119v-29" stroke="#7C3AED" stroke-width="16" stroke-linecap="round"/><circle cx="256" cy="75" r="12" fill="#7C3AED"/></svg>